<?xml version="1.0" encoding="UTF-8"?>
<svg width="720px" height="520px" viewBox="0 0 720 520" version="1.1" xmlns="http://www.w3.org/2000/svg" xmlns:xlink="http://www.w3.org/1999/xlink">
    <!-- Generator: Sketch 52.4 (67378) - http://www.bohemiancoding.com/sketch -->
    <title>矩形</title>
    <desc>Created with Sketch.</desc>
    <defs>
        <rect id="path-1" x="0" y="0" width="720" height="520"></rect>
        <linearGradient x1="83.890025%" y1="0%" x2="16.9603053%" y2="88.4617982%" id="linearGradient-3">
            <stop stop-color="#32B2F7" offset="0%"></stop>
            <stop stop-color="#90DEFF" stop-opacity="0.762596241" offset="55.6840983%"></stop>
            <stop stop-color="#96DAFF" offset="100%"></stop>
        </linearGradient>
        <linearGradient x1="0%" y1="24.0681823%" x2="102.416419%" y2="91.1469193%" id="linearGradient-4">
            <stop stop-color="#1FAEFB" offset="0%"></stop>
            <stop stop-color="#7BD0FF" offset="100%"></stop>
        </linearGradient>
        <linearGradient x1="66.7188721%" y1="2.84583994%" x2="10.7534479%" y2="75.0536772%" id="linearGradient-5">
            <stop stop-color="#F0FAFF" offset="0%"></stop>
            <stop stop-color="#C5EAFF" offset="100%"></stop>
        </linearGradient>
        <linearGradient x1="113.20665%" y1="32.2792112%" x2="11.7352548%" y2="66.7730949%" id="linearGradient-6">
            <stop stop-color="#C2E8FC" offset="0%"></stop>
            <stop stop-color="#EDF9FF" offset="100%"></stop>
        </linearGradient>
        <linearGradient x1="65.5492287%" y1="0%" x2="50.4181524%" y2="97.310784%" id="linearGradient-7">
            <stop stop-color="#1FAEFB" offset="0%"></stop>
            <stop stop-color="#7BD0FF" offset="100%"></stop>
        </linearGradient>
        <linearGradient x1="65.3954854%" y1="0.988752095%" x2="50.4181524%" y2="97.310784%" id="linearGradient-8">
            <stop stop-color="#0A99E6" offset="0%"></stop>
            <stop stop-color="#56BCF3" offset="100%"></stop>
        </linearGradient>
        <linearGradient x1="87.8285732%" y1="35.1832832%" x2="29.2529613%" y2="26.3263588%" id="linearGradient-9">
            <stop stop-color="#59D4FF" stop-opacity="0" offset="0%"></stop>
            <stop stop-color="#57D6FF" offset="100%"></stop>
        </linearGradient>
        <path d="M22.9032258,65.55 L10.9228974,67.4076166 C6.28089703,67.4076166 2.73084103,63.8425557 2.73084103,59.1806539 L2.73084103,48.2114015 C0.819214974,43.823663 0,39.1616675 0,34.4999531 C0,14.7553176 14.8983985,3.62138993 27.505127,1.15 C50.4083528,-3.33988821 67.5645161,10.5580256 69.8548387,29.9 C72.1451613,49.2419744 60.6779032,62.4885704 48.0967742,66.7 C41.2258065,69 32.827957,68.6166667 22.9032258,65.55 Z" id="path-10"></path>
        <linearGradient x1="96.5141435%" y1="21.9209051%" x2="11.7352548%" y2="66.7730949%" id="linearGradient-12">
            <stop stop-color="#C2E8FC" offset="0%"></stop>
            <stop stop-color="#EDF9FF" offset="100%"></stop>
        </linearGradient>
        <linearGradient x1="50.0535071%" y1="15.6620497%" x2="50.0535071%" y2="78.9688221%" id="linearGradient-13">
            <stop stop-color="#59D4FF" stop-opacity="0" offset="0%"></stop>
            <stop stop-color="#57D6FF" offset="100%"></stop>
        </linearGradient>
        <linearGradient x1="84.6538029%" y1="3.8115395%" x2="9.00214576%" y2="89.5115519%" id="linearGradient-14">
            <stop stop-color="#1CC9EA" offset="0%"></stop>
            <stop stop-color="#7BEDFF" offset="100%"></stop>
        </linearGradient>
        <linearGradient x1="50.0535071%" y1="100%" x2="50.0535071%" y2="15.6620497%" id="linearGradient-15">
            <stop stop-color="#62D7FF" stop-opacity="0" offset="0%"></stop>
            <stop stop-color="#75EAFF" offset="100%"></stop>
        </linearGradient>
        <linearGradient x1="50.0535071%" y1="100%" x2="50.0535071%" y2="15.6620497%" id="linearGradient-16">
            <stop stop-color="#62D7FF" stop-opacity="0" offset="0%"></stop>
            <stop stop-color="#60E7FF" offset="100%"></stop>
        </linearGradient>
    </defs>
    <g id="chat33" stroke="none" stroke-width="1" fill="none" fill-rule="evenodd">
        <g id="注册进入">
            <rect fill="#FAFBFC" x="0" y="0" width="720" height="1280"></rect>
            <rect id="Rectangle-2-Copy" fill="#FAFBFC" x="0" y="0" width="720" height="48"></rect>
            <g id="分组-5">
                <g id="分组-4">
                    <mask id="mask-2" fill="white">
                        <use xlink:href="#path-1"></use>
                    </mask>
                    <g id="Mask" fill-rule="nonzero"></g>
                    <g mask="url(#mask-2)">
                        <g transform="translate(49.000000, -5.000000)">
                            <path d="M124,1 C40.5904949,71.1293279 -0.739038051,164.034624 0.0114010536,279.715888 C1.13705971,453.237783 254.686238,484.43325 365.79781,506.772473 C439.872192,521.665288 541.636182,494.773551 671.08978,426.097262 L671.08978,0.64893617 L124,1 Z" id="Path-77" stroke="none" fill="url(#linearGradient-3)" fill-rule="evenodd"></path>
                            <g id="分组-3" stroke="none" stroke-width="1" fill="none" fill-rule="evenodd" transform="translate(234.000000, 391.074165)" opacity="0.461123512">
                                <ellipse id="椭圆形-copy" fill="url(#linearGradient-4)" fill-rule="nonzero" cx="80.2333084" cy="26.2451519" rx="79.5" ry="26"></ellipse>
                                <ellipse id="椭圆形" fill="url(#linearGradient-4)" fill-rule="nonzero" cx="88" cy="25" rx="65" ry="21"></ellipse>
                                <ellipse id="椭圆形-copy-2" fill="url(#linearGradient-4)" fill-rule="nonzero" cx="92.5" cy="26" rx="26.5" ry="9"></ellipse>
                            </g>
                            <path d="M223.152524,308.60875 L162.271884,272.40945 C153.69972,267.312488 142.967453,267.56799 134.647549,273.067101 L96.1356013,298.521898 C92.9104288,300.653603 92.0239983,304.99621 94.1557033,308.221383 C94.7153405,309.068088 95.4524069,309.78297 96.3158151,310.316478 L179.214377,361.540252 C182.503171,363.572428 183.521862,367.885926 181.489686,371.17472 C180.931263,372.07845 180.17447,372.843225 179.276648,373.411098 L131.247192,403.789789 C127.979899,405.856356 127.006518,410.180304 129.073085,413.447597 C129.650148,414.359948 130.430408,415.126469 131.352865,415.687236 L198.296469,456.382597" id="路径-7" stroke="#2DB4FC" stroke-width="2" fill="none" fill-rule="nonzero"></path>
                            <path d="M305.888889,207.074165 L238.872715,165.251017 C234.187404,162.327029 232.759569,156.158474 235.683556,151.473163 C236.522382,150.129053 237.668578,149.003493 239.027705,148.189224 L316,102.074165" id="路径-8" stroke="#2DB4FC" stroke-width="2" fill="none" fill-rule="nonzero"></path>
                            <path d="M378,237.021534 L427.177059,208.851566 C436.633997,203.434373 448.284962,203.572049 457.61125,209.2112 L507,239.074165" id="路径-9" stroke="#2DB4FC" stroke-width="2" fill="none" fill-rule="nonzero"></path>
                            <path d="M384,172.334242 C347.667451,171.45913 316.667451,172.792464 291,176.334242 C265.332549,179.876021 236.665882,189.758831 205,205.982672 C205,237.061024 205,258.266867 205,269.6002 C205,286.6002 211.311789,321.716326 236,355.674668 C252.458808,378.313562 278.625474,396.533421 314.5,410.334242 C346.833333,378.87325 365.666667,354.539916 371,337.334242 C379,311.525732 384,276.141163 384,243.784762 C384,225.515496 394,202.421981 394,180.930712 C394,178.341408 390.666667,175.475918 384,172.334242 Z" id="路径-2-copy-4" stroke="none" fill="url(#linearGradient-5)" fill-rule="nonzero"></path>
                            <path d="M394,180.775568 C357.667451,179.23379 326.667451,180.23379 301,183.775568 C275.332549,187.317347 246.665882,197.200157 215,213.423998 C215,244.50235 215,265.708193 215,277.041526 C215,294.041526 221.311789,329.157652 246,363.115994 C262.458808,385.754888 288.625474,403.974747 324.5,417.775568 C356.833333,386.314576 375.666667,361.981242 381,344.775568 C389,318.967058 394,283.582489 394,251.226088 C394,229.655154 394,206.171648 394,180.775568 Z" id="路径-2" stroke="none" fill="url(#linearGradient-6)" fill-rule="nonzero"></path>
                            <path d="M376,205.616227 C347.786456,204.424703 323.713831,205.197527 303.782123,207.934699 C283.850415,210.671872 261.589707,218.309547 237,230.847724 C237,254.865827 237,271.254216 237,280.012891 C237,293.150903 241.901333,320.289496 261.072626,346.533325 C273.853487,364.029211 294.172854,378.109959 322.030726,388.775568 C347.138734,364.461751 361.763501,345.656361 365.905028,332.3594 C372.117318,312.413958 376,285.067905 376,260.062095 C376,243.391555 376,225.242932 376,205.616227 Z" id="路径-2-copy" stroke="none" fill="url(#linearGradient-7)" fill-rule="nonzero"></path>
                            <path d="M321,387.979786 C340.81735,367.416681 352.61948,351.061392 356.406389,338.913919 C363.199685,317.122696 367.445495,287.246 367.445495,259.926115 C367.445495,243.031612 367.445495,224.747628 367.445495,205.074165 C370.397154,205.157036 373.397154,205.262843 376.445495,205.391582 C376.445495,225.018287 376.445495,243.16691 376.445495,259.83745 C376.445495,284.843261 372.562813,312.189313 366.350523,332.134755 C362.208996,345.431717 347.584228,364.237106 322.476221,388.550924 C321.981772,388.36162 321.489699,388.171241 321,387.979786 Z" id="合并形状" stroke="none" fill="url(#linearGradient-8)" fill-rule="nonzero"></path>
                            <path d="" id="路径-5" stroke="#979797" stroke-width="1" fill="none" fill-rule="nonzero"></path>
                            <path d="M308.060335,273.618196 L320.895053,272.832218 C320.556963,269.548585 317.815368,266.997244 314.495223,266.997244 C310.947294,266.997244 308.060335,269.91023 308.060335,273.517221 L308.060335,273.618196 Z M313.435739,299.828766 C313.435739,299.259296 313.904061,298.7868 314.495223,298.7868 C315.086041,298.7868 315.55439,299.25927 315.55439,299.828766 L315.55439,290.325124 C315.55439,290.894409 315.086254,291.366772 314.495223,291.366772 C313.903848,291.366772 313.435739,290.894384 313.435739,290.325124 L313.435739,299.828766 Z M330.719331,271.756232 L331.847824,271.631342 L332.007366,271.617984 C337.186168,271.323261 341,275.4146 341,280.487557 L341,302.732681 C341,307.573877 337.142976,311.519322 332.339407,311.606041 L296.968669,315.074165 L296.821945,315.074165 C291.943587,315.074165 288,311.094718 288,306.199347 L288,283.954224 C288,281.606679 288.925117,279.353246 290.574367,277.688627 C292.108853,276.140288 292.993998,275.795033 296.288699,275.127576 L298.178907,274.786158 L298.178907,273.510687 C298.178907,264.438987 305.477722,257.074165 314.495223,257.074165 C322.923393,257.074165 329.850268,263.508219 330.719331,271.756232 Z" id="Fill-1-Copy-2" stroke="#83E1FF" stroke-width="6" fill="#EFF9FF" fill-rule="evenodd"></path>
                            <path d="M294.597815,311.702273 C292.486636,310.822863 291,308.716831 291,306.25867 L291,283.984937 C291,282.425207 291.611233,280.928984 292.698708,279.825765 C293.786497,278.722545 295.261794,278.102962 296.799788,278.102962 L301.14017,278.102962 L301.14017,273.527968 C301.14017,266.097673 307.079118,260.074165 314.405807,260.074165 C314.544162,260.074165 314.682021,260.076314 314.819356,260.080579 L314.821868,260.074165 L521.108741,263.545291 L521.108741,380.074165 L294.425937,312.141044 L294.597815,311.702273 Z" id="合并形状" stroke="none" fill="url(#linearGradient-9)" fill-rule="evenodd" opacity="0.735072545"></path>
                            <path d="M305.060335,273.517221 C305.060335,268.259358 309.284398,263.997244 314.495223,263.997244 C319.705731,263.997244 323.93011,268.259358 323.93011,273.517221 L323.93011,275.651975 L305.060335,276.807531 L305.060335,273.517221 Z M316.435739,299.828766 C316.435739,300.91033 315.566795,301.7868 314.495223,301.7868 C313.423335,301.7868 312.55439,300.91033 312.55439,299.828766 L312.55439,290.325124 C312.55439,289.24356 313.423335,288.366772 314.495223,288.366772 C315.566795,288.366772 316.435739,289.24356 316.435739,290.325124 L316.435739,299.828766 Z M327.811222,275.096388 L327.811222,273.510687 C327.811222,266.089936 321.849586,260.074165 314.495223,260.074165 C307.140543,260.074165 301.178907,266.089936 301.178907,273.510687 L301.178907,277.292829 L296.821945,278.079804 C294.439024,278.563054 293.797142,278.698592 292.705197,279.800394 C291.613568,280.902197 291,282.396498 291,283.954224 L291,306.199347 C291,309.443879 293.606518,312.074165 296.821945,312.074165 L332.177819,308.607499 C335.393245,308.607499 338,305.977213 338,302.732681 L338,280.487557 C338,277.243185 335.707317,274.412276 332.177819,274.613138 L327.811222,275.096388 Z" id="Fill-1" stroke="none" fill="#EFF9FF" fill-rule="evenodd"></path>
                            <g id="分组" stroke="none" stroke-width="1" fill="none" fill-rule="evenodd" transform="translate(439.000000, 277.074165)">
                                <mask id="mask-11" fill="white">
                                    <use xlink:href="#path-10"></use>
                                </mask>
                                <use id="Mask" fill="#EFF9FF" xlink:href="#path-10"></use>
                                <ellipse id="椭圆形" fill="#2CB3FC" fill-rule="nonzero" mask="url(#mask-11)" cx="21.7580645" cy="37.95" rx="4.58064516" ry="4.6"></ellipse>
                                <ellipse id="椭圆形-copy-3" fill="#2CB3FC" fill-rule="nonzero" mask="url(#mask-11)" cx="36.6451613" cy="35.65" rx="4.58064516" ry="4.6"></ellipse>
                                <ellipse id="椭圆形-copy-4" fill="#2CB3FC" fill-rule="nonzero" mask="url(#mask-11)" cx="50.3870968" cy="34.5" rx="4.58064516" ry="4.6"></ellipse>
                            </g>
                            <g id="分组-13" stroke="none" stroke-width="1" fill="none" fill-rule="evenodd" transform="translate(145.000000, 387.074165)">
                                <path d="M78,72.8811446 C78.0758884,73.4259204 78.0774299,73.9831312 78.0000002,74.5368013 L78,74.7547661 L77.9653892,74.7547661 C77.8532764,75.3851412 77.6375574,76.0081744 77.3113625,76.600133 C76.7699819,77.5825973 75.964025,78.3936196 74.9849718,78.9411448 L46.2824225,94.9927428 C42.6662243,97.0150634 38.2626017,97.0288583 34.6338043,95.0292334 L6.28549115,79.4080818 C4.49200674,78.419794 3.40346152,76.6486784 3.21090447,74.7547661 L3,74.7547661 L3,45 L78,45 L78,72.8811446 Z" id="合并形状" fill="url(#linearGradient-12)"></path>
                                <path d="M29.5544578,26.3020932 L60.8163511,17.6159748 C64.0091091,16.7288669 67.3164939,18.5979655 68.2036019,21.7907235 C68.4935094,22.8341192 68.4956249,23.9365258 68.209724,24.9810265 L59.5599983,56.5816421 C58.4446428,60.6564443 55.2687481,63.8445514 51.1982566,64.9755376 L19.9363632,73.6616561 C16.7436052,74.548764 13.4362204,72.6796654 12.5491125,69.4869074 C12.2592049,68.4435117 12.2570894,67.3411051 12.5429903,66.2966044 L21.1927161,34.6959888 C22.3080716,30.6211866 25.4839663,27.4330795 29.5544578,26.3020932 Z" id="Rectangle-31-Copy-13" fill="#F5FBFF" transform="translate(40.376357, 45.638815) rotate(-315.000000) translate(-40.376357, -45.638815) "></path>
                                <rect id="Rectangle-33-Copy" fill="url(#linearGradient-13)" x="17" y="0" width="47" height="47"></rect>
                                <path d="M34.455163,30.9066227 L53.9477814,25.5312104 C56.6098387,24.797104 59.3629733,26.360017 60.0970797,29.0220743 C60.3369807,29.8920167 60.3369714,30.8106688 60.0970527,31.6806064 L54.7215643,51.1719587 C53.598361,55.2446586 50.4162783,58.4266768 46.3435556,59.5497975 L26.8509372,64.9252098 C24.1888799,65.6593162 21.4357453,64.0964032 20.7016389,61.4343459 C20.4617379,60.5644035 20.4617472,59.6457514 20.7016659,58.7758138 L26.0771543,39.2844615 C27.2003576,35.2117616 30.3824403,32.0297434 34.455163,30.9066227 Z" id="Rectangle-31-Copy-14" fill="url(#linearGradient-14)" transform="translate(40.399359, 45.228210) rotate(-315.000000) translate(-40.399359, -45.228210) "></path>
                                <path d="M33.9070612,32.0868423 L52.3845244,26.9913524 C55.0465808,26.2572429 57.7997173,27.8201527 58.5338268,30.4822091 C58.7737288,31.3521512 58.7737206,32.2708033 58.533803,33.1407411 L53.4382557,51.6171206 C52.3150572,55.6898219 49.1329783,58.8718438 45.0602569,59.9949693 L26.5827936,65.0904592 C23.9207372,65.8245687 21.1676008,64.261659 20.4334912,61.5996026 C20.1935892,60.7296604 20.1935974,59.8110083 20.4335151,58.9410705 L25.5290623,40.464691 C26.6522608,36.3919897 29.8343398,33.2099678 33.9070612,32.0868423 Z" id="Rectangle-31-Copy-15" fill="url(#linearGradient-7)" transform="translate(39.483659, 46.040906) rotate(-315.000000) translate(-39.483659, -46.040906) "></path>
                            </g>
                            <g id="分组-13-copy" stroke="none" stroke-width="1" fill="none" fill-rule="evenodd" transform="translate(123.000000, 214.074165)">
                                <path d="M47.2361547,49.9270323 C47.1568071,50.8925795 46.8746801,51.8570795 46.3721213,52.7583836 C45.7465442,53.8803126 44.8243125,54.808472 43.7064146,55.4412243 L31.0618159,62.5983175 C27.4183226,64.6606068 22.9634034,64.6748781 19.306772,62.6359746 L6.92677237,55.7330025 C4.72750101,54.5067093 3.44694706,52.2704085 3.34157439,49.9270323 L3,49.9270323 L3,30 L48,30 L48,49.9270323 L47.2361547,49.9270323 Z" id="合并形状" fill="url(#linearGradient-12)"></path>
                                <path d="M20.4606424,16.8326369 L35.5300262,12.6553411 C38.7233156,11.770148 42.029579,13.6412298 42.914772,16.8345192 C43.2033998,17.8757293 43.2055119,18.9755573 42.9208852,20.0178683 L38.7461536,35.3058554 C37.631898,39.3862913 34.4516974,42.5787297 30.375571,43.7086489 L15.3061872,47.8859447 C12.1128978,48.7711377 8.80663445,46.900056 7.92144137,43.7067666 C7.63281361,42.6655565 7.63070154,41.5657285 7.91532819,40.5234175 L12.0900598,25.2354304 C13.2043154,21.1549944 16.384516,17.962556 20.4606424,16.8326369 Z" id="Rectangle-31-Copy-13" fill="#F5FBFF" transform="translate(25.418107, 30.270643) rotate(-315.000000) translate(-25.418107, -30.270643) "></path>
                                <rect id="Rectangle-33-Copy" fill="url(#linearGradient-13)" x="10" y="0" width="31" height="31"></rect>
                                <path d="M23.7123639,19.8909005 L31.5503637,17.7345111 C34.2128618,17.002005 36.9650564,18.5665727 37.6975625,21.2290707 C37.9363994,22.09719 37.9363901,23.0136933 37.6975356,23.8818078 L35.5411983,31.7189965 C34.4190785,35.7973308 31.232677,38.9836677 27.1543198,40.1057047 L19.3163201,42.2620941 C16.653822,42.9946002 13.9016274,41.4300326 13.1691213,38.7675345 C12.9302844,37.8994152 12.9302937,36.9829119 13.1691482,36.1147975 L15.3254855,28.2776088 C16.4476053,24.1992744 19.6340068,21.0129376 23.7123639,19.8909005 Z" id="Rectangle-31-Copy-14" fill="url(#linearGradient-14)" transform="translate(25.433342, 29.998303) rotate(-315.000000) translate(-25.433342, -29.998303) "></path>
                                <path d="M23.3496757,20.6736967 L30.5149606,18.7023754 C33.1774578,17.9698662 35.9296543,19.5344305 36.6621635,22.1969277 C36.9010014,23.0650468 36.9009932,23.98155 36.6621397,24.8496648 L34.690871,32.0142562 C33.5687561,36.0925919 30.3823583,39.2789324 26.3040025,40.4009743 L19.1387176,42.3722956 C16.4762204,43.1048048 13.7240239,41.5402404 12.9915147,38.8777432 C12.7526768,38.0096242 12.752685,37.0931209 12.9915385,36.2250062 L14.9628071,29.0604148 C16.0849221,24.9820791 19.2713198,21.7957385 23.3496757,20.6736967 Z" id="Rectangle-31-Copy-15" fill="url(#linearGradient-7)" transform="translate(24.826839, 30.537335) rotate(-315.000000) translate(-24.826839, -30.537335) "></path>
                            </g>
                            <g id="分组-2" stroke="none" stroke-width="1" fill="none" fill-rule="evenodd" transform="translate(399.000000, 133.074165)">
                                <rect id="矩形" fill="url(#linearGradient-15)" fill-rule="nonzero" x="0" y="3.42374304" width="11.4124768" height="44.5086595"></rect>
                                <ellipse id="椭圆形" fill="#75EAFF" fill-rule="nonzero" cx="5.7062384" cy="3.99436688" rx="5.7062384" ry="3.99436688"></ellipse>
                            </g>
                            <g id="分组-2-copy" stroke="none" stroke-width="1" fill="none" fill-rule="evenodd" transform="translate(359.000000, 152.074165)">
                                <rect id="矩形" fill="url(#linearGradient-15)" fill-rule="nonzero" x="0" y="3.42857143" width="11" height="44.5714286"></rect>
                                <ellipse id="椭圆形" fill="#75EAFF" fill-rule="nonzero" cx="5.5" cy="4" rx="5.5" ry="4"></ellipse>
                            </g>
                            <g id="分组-2-copy-3" stroke="none" stroke-width="1" fill="none" fill-rule="evenodd" transform="translate(186.000000, 191.074165)">
                                <rect id="矩形" fill="url(#linearGradient-16)" fill-rule="nonzero" x="0" y="3.42857143" width="11" height="44.5714286"></rect>
                                <ellipse id="椭圆形" fill="#61E7FF" fill-rule="nonzero" cx="5.5" cy="4" rx="5.5" ry="4"></ellipse>
                            </g>
                            <g id="分组-2-copy-5" stroke="none" stroke-width="1" fill="none" fill-rule="evenodd" transform="translate(221.000000, 148.074165)">
                                <rect id="矩形" fill="url(#linearGradient-16)" fill-rule="nonzero" x="0" y="3.42857143" width="11" height="44.5714286"></rect>
                                <ellipse id="椭圆形" fill="#61E7FF" fill-rule="nonzero" cx="5.5" cy="4" rx="5.5" ry="4"></ellipse>
                            </g>
                            <g id="分组-2-copy-4" stroke="none" stroke-width="1" fill="none" fill-rule="evenodd" transform="translate(218.000000, 211.074165)">
                                <rect id="矩形" fill="url(#linearGradient-15)" fill-rule="nonzero" x="0" y="3.42857143" width="11" height="44.5714286"></rect>
                                <ellipse id="椭圆形" fill="#75EAFF" fill-rule="nonzero" cx="5.5" cy="4" rx="5.5" ry="4"></ellipse>
                            </g>
                            <g id="分组-13-copy-2" stroke="none" stroke-width="1" fill="none" fill-rule="evenodd" transform="translate(283.000000, 56.074165)">
                                <path d="M47.2361547,49.9270323 C47.1568071,50.8925795 46.8746801,51.8570795 46.3721213,52.7583836 C45.7465442,53.8803126 44.8243125,54.808472 43.7064146,55.4412243 L31.0618159,62.5983175 C27.4183226,64.6606068 22.9634034,64.6748781 19.306772,62.6359746 L6.92677237,55.7330025 C4.72750101,54.5067093 3.44694706,52.2704085 3.34157439,49.9270323 L3,49.9270323 L3,30 L48,30 L48,49.9270323 L47.2361547,49.9270323 Z" id="合并形状" fill="url(#linearGradient-12)"></path>
                                <path d="M20.4606424,16.8326369 L35.5300262,12.6553411 C38.7233156,11.770148 42.029579,13.6412298 42.914772,16.8345192 C43.2033998,17.8757293 43.2055119,18.9755573 42.9208852,20.0178683 L38.7461536,35.3058554 C37.631898,39.3862913 34.4516974,42.5787297 30.375571,43.7086489 L15.3061872,47.8859447 C12.1128978,48.7711377 8.80663445,46.900056 7.92144137,43.7067666 C7.63281361,42.6655565 7.63070154,41.5657285 7.91532819,40.5234175 L12.0900598,25.2354304 C13.2043154,21.1549944 16.384516,17.962556 20.4606424,16.8326369 Z" id="Rectangle-31-Copy-13" fill="#F5FBFF" transform="translate(25.418107, 30.270643) rotate(-315.000000) translate(-25.418107, -30.270643) "></path>
                                <rect id="Rectangle-33-Copy" fill="url(#linearGradient-13)" x="10" y="0" width="31" height="31"></rect>
                                <path d="M23.7123639,19.8909005 L31.5503637,17.7345111 C34.2128618,17.002005 36.9650564,18.5665727 37.6975625,21.2290707 C37.9363994,22.09719 37.9363901,23.0136933 37.6975356,23.8818078 L35.5411983,31.7189965 C34.4190785,35.7973308 31.232677,38.9836677 27.1543198,40.1057047 L19.3163201,42.2620941 C16.653822,42.9946002 13.9016274,41.4300326 13.1691213,38.7675345 C12.9302844,37.8994152 12.9302937,36.9829119 13.1691482,36.1147975 L15.3254855,28.2776088 C16.4476053,24.1992744 19.6340068,21.0129376 23.7123639,19.8909005 Z" id="Rectangle-31-Copy-14" fill="url(#linearGradient-14)" transform="translate(25.433342, 29.998303) rotate(-315.000000) translate(-25.433342, -29.998303) "></path>
                                <path d="M23.3496757,20.6736967 L30.5149606,18.7023754 C33.1774578,17.9698662 35.9296543,19.5344305 36.6621635,22.1969277 C36.9010014,23.0650468 36.9009932,23.98155 36.6621397,24.8496648 L34.690871,32.0142562 C33.5687561,36.0925919 30.3823583,39.2789324 26.3040025,40.4009743 L19.1387176,42.3722956 C16.4762204,43.1048048 13.7240239,41.5402404 12.9915147,38.8777432 C12.7526768,38.0096242 12.752685,37.0931209 12.9915385,36.2250062 L14.9628071,29.0604148 C16.0849221,24.9820791 19.2713198,21.7957385 23.3496757,20.6736967 Z" id="Rectangle-31-Copy-15" fill="url(#linearGradient-7)" transform="translate(24.826839, 30.537335) rotate(-315.000000) translate(-24.826839, -30.537335) "></path>
                            </g>
                            <g id="分组-13-copy-3" stroke="none" stroke-width="1" fill="none" fill-rule="evenodd" transform="translate(487.000000, 192.074165)">
                                <path d="M47.2361547,49.9270323 C47.1568071,50.8925795 46.8746801,51.8570795 46.3721213,52.7583836 C45.7465442,53.8803126 44.8243125,54.808472 43.7064146,55.4412243 L31.0618159,62.5983175 C27.4183226,64.6606068 22.9634034,64.6748781 19.306772,62.6359746 L6.92677237,55.7330025 C4.72750101,54.5067093 3.44694706,52.2704085 3.34157439,49.9270323 L3,49.9270323 L3,30 L48,30 L48,49.9270323 L47.2361547,49.9270323 Z" id="合并形状" fill="url(#linearGradient-12)"></path>
                                <path d="M20.4606424,16.8326369 L35.5300262,12.6553411 C38.7233156,11.770148 42.029579,13.6412298 42.914772,16.8345192 C43.2033998,17.8757293 43.2055119,18.9755573 42.9208852,20.0178683 L38.7461536,35.3058554 C37.631898,39.3862913 34.4516974,42.5787297 30.375571,43.7086489 L15.3061872,47.8859447 C12.1128978,48.7711377 8.80663445,46.900056 7.92144137,43.7067666 C7.63281361,42.6655565 7.63070154,41.5657285 7.91532819,40.5234175 L12.0900598,25.2354304 C13.2043154,21.1549944 16.384516,17.962556 20.4606424,16.8326369 Z" id="Rectangle-31-Copy-13" fill="#F5FBFF" transform="translate(25.418107, 30.270643) rotate(-315.000000) translate(-25.418107, -30.270643) "></path>
                                <rect id="Rectangle-33-Copy" fill="url(#linearGradient-13)" x="10" y="0" width="31" height="31"></rect>
                                <path d="M23.7123639,19.8909005 L31.5503637,17.7345111 C34.2128618,17.002005 36.9650564,18.5665727 37.6975625,21.2290707 C37.9363994,22.09719 37.9363901,23.0136933 37.6975356,23.8818078 L35.5411983,31.7189965 C34.4190785,35.7973308 31.232677,38.9836677 27.1543198,40.1057047 L19.3163201,42.2620941 C16.653822,42.9946002 13.9016274,41.4300326 13.1691213,38.7675345 C12.9302844,37.8994152 12.9302937,36.9829119 13.1691482,36.1147975 L15.3254855,28.2776088 C16.4476053,24.1992744 19.6340068,21.0129376 23.7123639,19.8909005 Z" id="Rectangle-31-Copy-14" fill="url(#linearGradient-14)" transform="translate(25.433342, 29.998303) rotate(-315.000000) translate(-25.433342, -29.998303) "></path>
                                <path d="M23.3496757,20.6736967 L30.5149606,18.7023754 C33.1774578,17.9698662 35.9296543,19.5344305 36.6621635,22.1969277 C36.9010014,23.0650468 36.9009932,23.98155 36.6621397,24.8496648 L34.690871,32.0142562 C33.5687561,36.0925919 30.3823583,39.2789324 26.3040025,40.4009743 L19.1387176,42.3722956 C16.4762204,43.1048048 13.7240239,41.5402404 12.9915147,38.8777432 C12.7526768,38.0096242 12.752685,37.0931209 12.9915385,36.2250062 L14.9628071,29.0604148 C16.0849221,24.9820791 19.2713198,21.7957385 23.3496757,20.6736967 Z" id="Rectangle-31-Copy-15" fill="url(#linearGradient-7)" transform="translate(24.826839, 30.537335) rotate(-315.000000) translate(-24.826839, -30.537335) "></path>
                            </g>
                            <g id="分组-15" stroke="none" stroke-width="1" fill="none" fill-rule="evenodd" transform="translate(114.000000, 272.074165)">
                                <polygon id="Rectangle-31-Copy-9" fill="#D7F1FF" transform="translate(5.971064, 6.058509) rotate(-315.000000) translate(-5.971064, -6.058509) " points="3.60257106 3.65285415 10.1480494 1.8151783 8.33955678 8.46416301 1.79407843 10.3018389"></polygon>
                                <polygon id="Rectangle-35" fill="#2CB3FC" points="0 6 6 9.40540541 6 15 0 11.5945946"></polygon>
                                <polygon id="Rectangle-35-Copy" fill="#70CDFF" transform="translate(9.000000, 10.500000) scale(-1, 1) translate(-9.000000, -10.500000) " points="6 6 12 9.40540541 12 15 6 11.5945946"></polygon>
                            </g>
                            <g id="分组-15-copy-4" stroke="none" stroke-width="1" fill="none" fill-rule="evenodd" transform="translate(182.000000, 277.074165)">
                                <polygon id="Rectangle-31-Copy-9" fill="#D7F1FF" transform="translate(5.971064, 6.058509) rotate(-315.000000) translate(-5.971064, -6.058509) " points="3.60257106 3.65285415 10.1480494 1.8151783 8.33955678 8.46416301 1.79407843 10.3018389"></polygon>
                                <polygon id="Rectangle-35" fill="#2CB3FC" points="0 6 6 9.40540541 6 15 0 11.5945946"></polygon>
                                <polygon id="Rectangle-35-Copy" fill="#70CDFF" transform="translate(9.000000, 10.500000) scale(-1, 1) translate(-9.000000, -10.500000) " points="6 6 12 9.40540541 12 15 6 11.5945946"></polygon>
                            </g>
                            <g id="分组-15-copy" stroke="none" stroke-width="1" fill="none" fill-rule="evenodd" transform="translate(149.000000, 379.074165)">
                                <polygon id="Rectangle-31-Copy-9" fill="#D7F1FF" transform="translate(5.971064, 6.058509) rotate(-315.000000) translate(-5.971064, -6.058509) " points="3.60257106 3.65285415 10.1480494 1.8151783 8.33955678 8.46416301 1.79407843 10.3018389"></polygon>
                                <polygon id="Rectangle-35" fill="#2CB3FC" points="0 6 6 9.40540541 6 15 0 11.5945946"></polygon>
                                <polygon id="Rectangle-35-Copy" fill="#70CDFF" transform="translate(9.000000, 10.500000) scale(-1, 1) translate(-9.000000, -10.500000) " points="6 6 12 9.40540541 12 15 6 11.5945946"></polygon>
                            </g>
                            <g id="分组-15-copy-2" stroke="none" stroke-width="1" fill="none" fill-rule="evenodd" transform="translate(406.000000, 207.074165)">
                                <polygon id="Rectangle-31-Copy-9" fill="#D7F1FF" transform="translate(5.971064, 6.058509) rotate(-315.000000) translate(-5.971064, -6.058509) " points="3.60257106 3.65285415 10.1480494 1.8151783 8.33955678 8.46416301 1.79407843 10.3018389"></polygon>
                                <polygon id="Rectangle-35" fill="#2CB3FC" points="0 6 6 9.40540541 6 15 0 11.5945946"></polygon>
                                <polygon id="Rectangle-35-Copy" fill="#70CDFF" transform="translate(9.000000, 10.500000) scale(-1, 1) translate(-9.000000, -10.500000) " points="6 6 12 9.40540541 12 15 6 11.5945946"></polygon>
                            </g>
                            <g id="分组-15-copy-5" stroke="none" stroke-width="1" fill="none" fill-rule="evenodd" transform="translate(467.000000, 207.074165)">
                                <polygon id="Rectangle-31-Copy-9" fill="#D7F1FF" transform="translate(5.971064, 6.058509) rotate(-315.000000) translate(-5.971064, -6.058509) " points="3.60257106 3.65285415 10.1480494 1.8151783 8.33955678 8.46416301 1.79407843 10.3018389"></polygon>
                                <polygon id="Rectangle-35" fill="#2CB3FC" points="0 6 6 9.40540541 6 15 0 11.5945946"></polygon>
                                <polygon id="Rectangle-35-Copy" fill="#70CDFF" transform="translate(9.000000, 10.500000) scale(-1, 1) translate(-9.000000, -10.500000) " points="6 6 12 9.40540541 12 15 6 11.5945946"></polygon>
                            </g>
                            <g id="分组-15-copy-3" stroke="none" stroke-width="1" fill="none" fill-rule="evenodd" transform="translate(258.000000, 122.074165)">
                                <polygon id="Rectangle-31-Copy-9" fill="#D7F1FF" transform="translate(5.971064, 6.058509) rotate(-315.000000) translate(-5.971064, -6.058509) " points="3.60257106 3.65285415 10.1480494 1.8151783 8.33955678 8.46416301 1.79407843 10.3018389"></polygon>
                                <polygon id="Rectangle-35" fill="#2CB3FC" points="0 6 6 9.40540541 6 15 0 11.5945946"></polygon>
                                <polygon id="Rectangle-35-Copy" fill="#70CDFF" transform="translate(9.000000, 10.500000) scale(-1, 1) translate(-9.000000, -10.500000) " points="6 6 12 9.40540541 12 15 6 11.5945946"></polygon>
                            </g>
                        </g>
                    </g>
                </g>
            </g>
        </g>
    </g>
</svg>